<svg t="1693532606544" class="icon" viewBox="0 0 1024 1024" version="1.1" xmlns="http://www.w3.org/2000/svg" p-id="21263" width="200" height="200"><path d="M711.124 40.168c-10.176-4.304-21.922 0.464-26.224 10.646-4.302 10.18 0.464 21.926 10.646 26.224 175.212 74.03 288.428 244.764 288.428 434.96 0 260.248-211.724 471.97-471.968 471.97S40.03 772.244 40.03 511.998 251.756 40.03 512.002 40.03a20.01 20.01 0 0 0 20.014-20.014C532.016 8.958 523.058 0 512.002 0c-282.32 0-512 229.68-512 511.998 0 282.32 229.68 512.002 512 512.002C794.318 1024 1024 794.32 1024 512c0.002-206.322-122.812-391.528-312.876-471.832z" fill="" p-id="21264"></path><path d="M735.828 794.444H496.912c-11.056 0-20.014 8.958-20.014 20.014s8.958 20.014 20.014 20.014h238.914c11.056 0 20.014-8.958 20.014-20.014s-8.956-20.014-20.012-20.014zM563.498 567.556c-6.778-8.738-19.348-10.32-28.08-3.546-19.158 14.858-55.758 24.464-93.242 24.464-38.406 0-74.514-9.428-91.982-24.012a20.008 20.008 0 0 0-28.188 2.536c-7.086 8.486-5.948 21.106 2.536 28.188 24.984 20.86 68.96 33.316 117.634 33.316 47.218 0 91.248-12.286 117.778-32.864 8.732-6.778 10.32-19.35 3.544-28.082zM910.67 567.556c-6.776-8.738-19.35-10.32-28.08-3.546-19.158 14.858-55.758 24.464-93.242 24.464-38.404 0-74.508-9.426-91.98-24.012-8.486-7.088-21.104-5.948-28.188 2.536-7.088 8.484-5.954 21.106 2.532 28.188 24.984 20.86 68.96 33.316 117.632 33.316 47.218 0 91.248-12.286 117.778-32.864 8.736-6.778 10.324-19.35 3.548-28.082zM460.51 432.592c-9.778-5.164-21.882-1.41-27.038 8.368-5.156 9.77-20.418 24.194-42.904 34.388-22.972 10.42-43.188 12.34-53.042 9.608-10.646-2.936-21.68 3.298-24.628 13.952-2.946 10.65 3.296 21.68 13.952 24.628 6.17 1.706 13.094 2.544 20.532 2.544 18.048 0 39.108-4.926 59.718-14.272 28.196-12.786 51.294-32.29 61.778-52.178 5.16-9.774 1.41-21.882-8.368-27.038zM913.458 498.906a20.004 20.004 0 0 0-24.628-13.946c-9.842 2.714-30.062 0.812-53.042-9.61-22.48-10.192-37.744-24.618-42.898-34.388-5.156-9.778-17.26-13.53-27.038-8.368-9.778 5.156-13.524 17.264-8.368 27.038 10.484 19.89 33.58 39.392 61.776 52.176 20.616 9.346 41.674 14.272 59.722 14.272 7.434 0 14.362-0.836 20.532-2.546 10.65-2.948 16.894-13.976 13.944-24.628z" fill="" p-id="21265"></path><path d="M638.204 37.68m-20.014 0a20.014 20.014 0 1 0 40.028 0 20.014 20.014 0 1 0-40.028 0Z" fill="" p-id="21266"></path></svg>